<?xml version="1.0" encoding="UTF-8"?><svg id="a" xmlns="http://www.w3.org/2000/svg" height="16" width="16" viewBox="0 0 16 16"><defs><style>.b{fill:#fff;}</style></defs><path class="b" d="M6.04,1.5h3.92c.28,0,.5-.22.5-.5s-.22-.5-.5-.5h-3.92c-.28,0-.5.22-.5.5s.22.5.5.5Z"/><path class="b" d="M6.4,7.04c-.28,0-.5.22-.5.5v4.85c0,.28.22.5.5.5s.5-.22.5-.5v-4.85c0-.28-.22-.5-.5-.5Z"/><path class="b" d="M9.6,7.04c-.28,0-.5.22-.5.5v4.85c0,.28.22.5.5.5s.5-.22.5-.5v-4.85c0-.28-.22-.5-.5-.5Z"/><path class="b" d="M12.95,2.35H3.05c-.86,0-1.55.68-1.55,1.51v.27c0,.81.65,1.46,1.47,1.51v7.33c0,1.39,1.13,2.52,2.52,2.52h5.05c1.39,0,2.52-1.13,2.52-2.52v-7.33c.8-.06,1.43-.71,1.43-1.5v-.27c0-.83-.7-1.51-1.55-1.51ZM10.55,14.5h-5.05c-.84,0-1.52-.68-1.52-1.52v-7.32h8.09v7.32c0,.84-.68,1.52-1.52,1.52ZM13.5,4.14c0,.28-.25.51-.55.51h-.37s0,0,0,0H3.47s0,0,0,0h-.41c-.31,0-.55-.23-.55-.51v-.27c0-.28.25-.51.55-.51h9.89c.31,0,.55.23.55.51v.27Z"/></svg>
